<svg id="visual" viewBox="0 0 960 540" width="960" height="540" xmlns="http://www.w3.org/2000/svg" xmlns:xlink="http://www.w3.org/1999/xlink" version="1.1"><rect x="0" y="0" width="960" height="540" fill="#282828"></rect><defs><linearGradient id="grad1_0" x1="43.8%" y1="0%" x2="100%" y2="100%"><stop offset="14.444444444444446%" stop-color="#fbae3c" stop-opacity="1"></stop><stop offset="85.55555555555554%" stop-color="#fbae3c" stop-opacity="1"></stop></linearGradient></defs><defs><linearGradient id="grad1_1" x1="43.8%" y1="0%" x2="100%" y2="100%"><stop offset="14.444444444444446%" stop-color="#fbae3c" stop-opacity="1"></stop><stop offset="85.55555555555554%" stop-color="#282828" stop-opacity="1"></stop></linearGradient></defs><defs><linearGradient id="grad2_0" x1="0%" y1="0%" x2="56.3%" y2="100%"><stop offset="14.444444444444446%" stop-color="#fbae3c" stop-opacity="1"></stop><stop offset="85.55555555555554%" stop-color="#fbae3c" stop-opacity="1"></stop></linearGradient></defs><defs><linearGradient id="grad2_1" x1="0%" y1="0%" x2="56.3%" y2="100%"><stop offset="14.444444444444446%" stop-color="#282828" stop-opacity="1"></stop><stop offset="85.55555555555554%" stop-color="#fbae3c" stop-opacity="1"></stop></linearGradient></defs><g transform="translate(960, 0)"><path d="M0 351C-33.9 314.8 -67.8 278.5 -109.4 264.2C-151.1 249.9 -200.6 257.6 -239.7 239.7C-278.8 221.9 -307.5 178.5 -324.3 134.3C-341.1 90.1 -346 45.1 -351 0L0 0Z" fill="#8d6736"></path><path d="M0 175.5C-16.9 157.4 -33.9 139.3 -54.7 132.1C-75.6 125 -100.3 128.8 -119.9 119.9C-139.4 110.9 -153.7 89.3 -162.1 67.2C-170.5 45.1 -173 22.5 -175.5 0L0 0Z" fill="#fbae3c"></path></g><g transform="translate(0, 540)"><path d="M0 -351C36.8 -325.1 73.6 -299.2 118.6 -286.4C163.7 -273.6 217 -273.9 248.2 -248.2C279.4 -222.5 288.6 -170.8 302.1 -125.1C315.6 -79.4 333.3 -39.7 351 0L0 0Z" fill="#8d6736"></path><path d="M0 -175.5C18.4 -162.6 36.8 -149.6 59.3 -143.2C81.8 -136.8 108.5 -136.9 124.1 -124.1C139.7 -111.3 144.3 -85.4 151.1 -62.6C157.8 -39.7 166.6 -19.9 175.5 0L0 0Z" fill="#fbae3c"></path></g></svg>